<svg width="262" height="56" viewBox="0 0 262 56" fill="none" xmlns="http://www.w3.org/2000/svg">
<rect width="262" height="56" fill="url(#paint0_linear_6_10)"/>
<circle cx="28" cy="28" r="20" fill="#EBEBEB"/>
<path d="M60.4091 26.1705C59.7045 26.1705 59.0758 25.9905 58.5227 25.6307C57.9735 25.267 57.5417 24.75 57.2273 24.0795C56.9167 23.4053 56.7614 22.5966 56.7614 21.6534C56.7614 20.7102 56.9186 19.9034 57.233 19.233C57.5511 18.5625 57.9867 18.0492 58.5398 17.6932C59.0928 17.3371 59.7197 17.1591 60.4205 17.1591C60.9621 17.1591 61.3977 17.25 61.7273 17.4318C62.0606 17.6098 62.3182 17.8182 62.5 18.0568C62.6856 18.2955 62.8295 18.5057 62.9318 18.6875H63.0341V14.3636H64.733V26H63.0739V24.642H62.9318C62.8295 24.8277 62.6818 25.0398 62.4886 25.2784C62.2992 25.517 62.0379 25.7254 61.7045 25.9034C61.3712 26.0814 60.9394 26.1705 60.4091 26.1705ZM60.7841 24.7216C61.2727 24.7216 61.6856 24.5928 62.0227 24.3352C62.3636 24.0739 62.6212 23.7121 62.7955 23.25C62.9735 22.7879 63.0625 22.25 63.0625 21.6364C63.0625 21.0303 62.9754 20.5 62.8011 20.0455C62.6269 19.5909 62.3712 19.2367 62.0341 18.983C61.697 18.7292 61.2803 18.6023 60.7841 18.6023C60.2727 18.6023 59.8466 18.7348 59.5057 19C59.1648 19.2652 58.9072 19.6269 58.733 20.0852C58.5625 20.5436 58.4773 21.0606 58.4773 21.6364C58.4773 22.2197 58.5644 22.7443 58.7386 23.2102C58.9129 23.6761 59.1705 24.0455 59.5114 24.3182C59.8561 24.5871 60.2803 24.7216 60.7841 24.7216ZM68.8565 20.8182V26H67.1577V14.3636H68.8338V18.6932H68.9418C69.1463 18.2235 69.4588 17.8504 69.8793 17.5739C70.2997 17.2973 70.849 17.1591 71.527 17.1591C72.1255 17.1591 72.6482 17.2822 73.0952 17.5284C73.5459 17.7746 73.8944 18.142 74.1406 18.6307C74.3906 19.1155 74.5156 19.7216 74.5156 20.4489V26H72.8168V20.6534C72.8168 20.0133 72.652 19.517 72.3224 19.1648C71.9929 18.8087 71.5346 18.6307 70.9474 18.6307C70.5459 18.6307 70.1861 18.7159 69.8679 18.8864C69.5535 19.0568 69.3054 19.3068 69.1236 19.6364C68.9455 19.9621 68.8565 20.3561 68.8565 20.8182ZM80.0497 26.1705C79.3452 26.1705 78.7164 25.9905 78.1634 25.6307C77.6141 25.267 77.1823 24.75 76.8679 24.0795C76.5573 23.4053 76.402 22.5966 76.402 21.6534C76.402 20.7102 76.5592 19.9034 76.8736 19.233C77.1918 18.5625 77.6274 18.0492 78.1804 17.6932C78.7334 17.3371 79.3603 17.1591 80.0611 17.1591C80.6027 17.1591 81.0384 17.25 81.3679 17.4318C81.7012 17.6098 81.9588 17.8182 82.1406 18.0568C82.3262 18.2955 82.4702 18.5057 82.5724 18.6875H82.6747V14.3636H84.3736V26H82.7145V24.642H82.5724C82.4702 24.8277 82.3224 25.0398 82.1293 25.2784C81.9399 25.517 81.6785 25.7254 81.3452 25.9034C81.0118 26.0814 80.58 26.1705 80.0497 26.1705ZM80.4247 24.7216C80.9134 24.7216 81.3262 24.5928 81.6634 24.3352C82.0043 24.0739 82.2618 23.7121 82.4361 23.25C82.6141 22.7879 82.7031 22.25 82.7031 21.6364C82.7031 21.0303 82.616 20.5 82.4418 20.0455C82.2675 19.5909 82.0118 19.2367 81.6747 18.983C81.3376 18.7292 80.9209 18.6023 80.4247 18.6023C79.9134 18.6023 79.4872 18.7348 79.1463 19C78.8054 19.2652 78.5478 19.6269 78.3736 20.0852C78.2031 20.5436 78.1179 21.0606 78.1179 21.6364C78.1179 22.2197 78.205 22.7443 78.3793 23.2102C78.5535 23.6761 78.8111 24.0455 79.152 24.3182C79.4967 24.5871 79.9209 24.7216 80.4247 24.7216ZM88.4972 20.8182V26H86.7983V14.3636H88.4744V18.6932H88.5824C88.7869 18.2235 89.0994 17.8504 89.5199 17.5739C89.9403 17.2973 90.4896 17.1591 91.1676 17.1591C91.7661 17.1591 92.2888 17.2822 92.7358 17.5284C93.1866 17.7746 93.535 18.142 93.7812 18.6307C94.0312 19.1155 94.1562 19.7216 94.1562 20.4489V26H92.4574V20.6534C92.4574 20.0133 92.2926 19.517 91.9631 19.1648C91.6335 18.8087 91.1752 18.6307 90.5881 18.6307C90.1866 18.6307 89.8267 18.7159 89.5085 18.8864C89.1941 19.0568 88.946 19.3068 88.7642 19.6364C88.5862 19.9621 88.4972 20.3561 88.4972 20.8182ZM99.6903 26.1705C98.9858 26.1705 98.357 25.9905 97.804 25.6307C97.2547 25.267 96.8229 24.75 96.5085 24.0795C96.1979 23.4053 96.0426 22.5966 96.0426 21.6534C96.0426 20.7102 96.1998 19.9034 96.5142 19.233C96.8324 18.5625 97.268 18.0492 97.821 17.6932C98.3741 17.3371 99.0009 17.1591 99.7017 17.1591C100.243 17.1591 100.679 17.25 101.009 17.4318C101.342 17.6098 101.599 17.8182 101.781 18.0568C101.967 18.2955 102.111 18.5057 102.213 18.6875H102.315V14.3636H104.014V26H102.355V24.642H102.213C102.111 24.8277 101.963 25.0398 101.77 25.2784C101.58 25.517 101.319 25.7254 100.986 25.9034C100.652 26.0814 100.221 26.1705 99.6903 26.1705ZM100.065 24.7216C100.554 24.7216 100.967 24.5928 101.304 24.3352C101.645 24.0739 101.902 23.7121 102.077 23.25C102.255 22.7879 102.344 22.25 102.344 21.6364C102.344 21.0303 102.257 20.5 102.082 20.0455C101.908 19.5909 101.652 19.2367 101.315 18.983C100.978 18.7292 100.562 18.6023 100.065 18.6023C99.554 18.6023 99.1278 18.7348 98.7869 19C98.446 19.2652 98.1884 19.6269 98.0142 20.0852C97.8438 20.5436 97.7585 21.0606 97.7585 21.6364C97.7585 22.2197 97.8456 22.7443 98.0199 23.2102C98.1941 23.6761 98.4517 24.0455 98.7926 24.3182C99.1373 24.5871 99.5616 24.7216 100.065 24.7216ZM108.138 20.8182V26H106.439V14.3636H108.115V18.6932H108.223C108.428 18.2235 108.74 17.8504 109.161 17.5739C109.581 17.2973 110.13 17.1591 110.808 17.1591C111.407 17.1591 111.929 17.2822 112.376 17.5284C112.827 17.7746 113.176 18.142 113.422 18.6307C113.672 19.1155 113.797 19.7216 113.797 20.4489V26H112.098V20.6534C112.098 20.0133 111.933 19.517 111.604 19.1648C111.274 18.8087 110.816 18.6307 110.229 18.6307C109.827 18.6307 109.467 18.7159 109.149 18.8864C108.835 19.0568 108.587 19.3068 108.405 19.6364C108.227 19.9621 108.138 20.3561 108.138 20.8182ZM119.331 26.1705C118.626 26.1705 117.998 25.9905 117.445 25.6307C116.895 25.267 116.464 24.75 116.149 24.0795C115.839 23.4053 115.683 22.5966 115.683 21.6534C115.683 20.7102 115.84 19.9034 116.155 19.233C116.473 18.5625 116.909 18.0492 117.462 17.6932C118.015 17.3371 118.642 17.1591 119.342 17.1591C119.884 17.1591 120.32 17.25 120.649 17.4318C120.982 17.6098 121.24 17.8182 121.422 18.0568C121.607 18.2955 121.751 18.5057 121.854 18.6875H121.956V14.3636H123.655V26H121.996V24.642H121.854C121.751 24.8277 121.604 25.0398 121.411 25.2784C121.221 25.517 120.96 25.7254 120.626 25.9034C120.293 26.0814 119.861 26.1705 119.331 26.1705ZM119.706 24.7216C120.195 24.7216 120.607 24.5928 120.945 24.3352C121.286 24.0739 121.543 23.7121 121.717 23.25C121.895 22.7879 121.984 22.25 121.984 21.6364C121.984 21.0303 121.897 20.5 121.723 20.0455C121.549 19.5909 121.293 19.2367 120.956 18.983C120.619 18.7292 120.202 18.6023 119.706 18.6023C119.195 18.6023 118.768 18.7348 118.428 19C118.087 19.2652 117.829 19.6269 117.655 20.0852C117.484 20.5436 117.399 21.0606 117.399 21.6364C117.399 22.2197 117.486 22.7443 117.661 23.2102C117.835 23.6761 118.092 24.0455 118.433 24.3182C118.778 24.5871 119.202 24.7216 119.706 24.7216Z" fill="black"/>
<path d="M59.392 44.1364C58.8466 44.1364 58.3651 43.9986 57.9474 43.723C57.5298 43.4446 57.2031 43.0526 56.9673 42.5469C56.7315 42.0384 56.6136 41.4375 56.6136 40.7443C56.6136 40.0568 56.7315 39.4602 56.9673 38.9545C57.2031 38.4489 57.5313 38.0582 57.9517 37.7827C58.3722 37.5071 58.858 37.3693 59.4091 37.3693C59.8352 37.3693 60.1719 37.4403 60.419 37.5824C60.669 37.7216 60.8594 37.8807 60.9901 38.0597C61.1236 38.2358 61.2273 38.3807 61.3011 38.4943H61.3864V35.2727H62.392V44H61.4205V42.9943H61.3011C61.2273 43.1136 61.1222 43.2642 60.9858 43.446C60.8494 43.625 60.6548 43.7855 60.402 43.9276C60.1491 44.0668 59.8125 44.1364 59.392 44.1364ZM59.5284 43.233C59.9318 43.233 60.2727 43.1278 60.5511 42.9176C60.8295 42.7045 61.0412 42.4105 61.1861 42.0355C61.331 41.6577 61.4034 41.2216 61.4034 40.7273C61.4034 40.2386 61.3324 39.8111 61.1903 39.4446C61.0483 39.0753 60.8381 38.7884 60.5597 38.5838C60.2813 38.3764 59.9375 38.2727 59.5284 38.2727C59.1023 38.2727 58.7472 38.3821 58.4631 38.6009C58.1818 38.8168 57.9702 39.1108 57.8281 39.483C57.6889 39.8523 57.6193 40.267 57.6193 40.7273C57.6193 41.1932 57.6903 41.6165 57.8324 41.9972C57.9773 42.375 58.1903 42.6761 58.4716 42.9006C58.7557 43.1222 59.108 43.233 59.5284 43.233ZM65.3793 40.0625V44H64.3736V35.2727H65.3793V38.4773H65.4645C65.6179 38.1392 65.848 37.8707 66.1548 37.6719C66.4645 37.4702 66.8764 37.3693 67.3906 37.3693C67.8366 37.3693 68.2273 37.4588 68.5625 37.6378C68.8977 37.8139 69.1577 38.0852 69.3423 38.4517C69.5298 38.8153 69.6236 39.2784 69.6236 39.8409V44H68.6179V39.9091C68.6179 39.3892 68.483 38.9872 68.2131 38.7031C67.946 38.4162 67.5753 38.2727 67.1009 38.2727C66.7713 38.2727 66.4759 38.3423 66.2145 38.4815C65.956 38.6207 65.7514 38.8239 65.6009 39.0909C65.4531 39.358 65.3793 39.6818 65.3793 40.0625ZM73.935 44.1364C73.3896 44.1364 72.908 43.9986 72.4904 43.723C72.0728 43.4446 71.7461 43.0526 71.5103 42.5469C71.2745 42.0384 71.1566 41.4375 71.1566 40.7443C71.1566 40.0568 71.2745 39.4602 71.5103 38.9545C71.7461 38.4489 72.0742 38.0582 72.4947 37.7827C72.9151 37.5071 73.4009 37.3693 73.9521 37.3693C74.3782 37.3693 74.7148 37.4403 74.962 37.5824C75.212 37.7216 75.4023 37.8807 75.533 38.0597C75.6665 38.2358 75.7702 38.3807 75.8441 38.4943H75.9293V35.2727H76.935V44H75.9634V42.9943H75.8441C75.7702 43.1136 75.6651 43.2642 75.5288 43.446C75.3924 43.625 75.1978 43.7855 74.945 43.9276C74.6921 44.0668 74.3555 44.1364 73.935 44.1364ZM74.0714 43.233C74.4748 43.233 74.8157 43.1278 75.0941 42.9176C75.3725 42.7045 75.5842 42.4105 75.729 42.0355C75.8739 41.6577 75.9464 41.2216 75.9464 40.7273C75.9464 40.2386 75.8754 39.8111 75.7333 39.4446C75.5913 39.0753 75.381 38.7884 75.1026 38.5838C74.8242 38.3764 74.4805 38.2727 74.0714 38.2727C73.6452 38.2727 73.2901 38.3821 73.006 38.6009C72.7248 38.8168 72.5131 39.1108 72.3711 39.483C72.2319 39.8523 72.1623 40.267 72.1623 40.7273C72.1623 41.1932 72.2333 41.6165 72.3754 41.9972C72.5202 42.375 72.7333 42.6761 73.0146 42.9006C73.2987 43.1222 73.6509 43.233 74.0714 43.233ZM79.9222 40.0625V44H78.9165V35.2727H79.9222V38.4773H80.0075C80.1609 38.1392 80.391 37.8707 80.6978 37.6719C81.0075 37.4702 81.4194 37.3693 81.9336 37.3693C82.3796 37.3693 82.7702 37.4588 83.1055 37.6378C83.4407 37.8139 83.7006 38.0852 83.8853 38.4517C84.0728 38.8153 84.1665 39.2784 84.1665 39.8409V44H83.1609V39.9091C83.1609 39.3892 83.0259 38.9872 82.756 38.7031C82.489 38.4162 82.1183 38.2727 81.6438 38.2727C81.3143 38.2727 81.0188 38.3423 80.7575 38.4815C80.4989 38.6207 80.2944 38.8239 80.1438 39.0909C79.9961 39.358 79.9222 39.6818 79.9222 40.0625ZM88.478 44.1364C87.9325 44.1364 87.451 43.9986 87.0334 43.723C86.6158 43.4446 86.2891 43.0526 86.0533 42.5469C85.8175 42.0384 85.6996 41.4375 85.6996 40.7443C85.6996 40.0568 85.8175 39.4602 86.0533 38.9545C86.2891 38.4489 86.6172 38.0582 87.0376 37.7827C87.4581 37.5071 87.9439 37.3693 88.495 37.3693C88.9212 37.3693 89.2578 37.4403 89.505 37.5824C89.755 37.7216 89.9453 37.8807 90.076 38.0597C90.2095 38.2358 90.3132 38.3807 90.3871 38.4943H90.4723V35.2727H91.478V44H90.5064V42.9943H90.3871C90.3132 43.1136 90.2081 43.2642 90.0717 43.446C89.9354 43.625 89.7408 43.7855 89.4879 43.9276C89.2351 44.0668 88.8984 44.1364 88.478 44.1364ZM88.6143 43.233C89.0178 43.233 89.3587 43.1278 89.6371 42.9176C89.9155 42.7045 90.1271 42.4105 90.272 42.0355C90.4169 41.6577 90.4893 41.2216 90.4893 40.7273C90.4893 40.2386 90.4183 39.8111 90.2763 39.4446C90.1342 39.0753 89.924 38.7884 89.6456 38.5838C89.3672 38.3764 89.0234 38.2727 88.6143 38.2727C88.1882 38.2727 87.8331 38.3821 87.549 38.6009C87.2678 38.8168 87.0561 39.1108 86.9141 39.483C86.7749 39.8523 86.7053 40.267 86.7053 40.7273C86.7053 41.1932 86.7763 41.6165 86.9183 41.9972C87.0632 42.375 87.2763 42.6761 87.5575 42.9006C87.8416 43.1222 88.1939 43.233 88.6143 43.233ZM94.4652 40.0625V44H93.4595V35.2727H94.4652V38.4773H94.5504C94.7038 38.1392 94.9339 37.8707 95.2408 37.6719C95.5504 37.4702 95.9624 37.3693 96.4766 37.3693C96.9226 37.3693 97.3132 37.4588 97.6484 37.6378C97.9837 37.8139 98.2436 38.0852 98.4283 38.4517C98.6158 38.8153 98.7095 39.2784 98.7095 39.8409V44H97.7038V39.9091C97.7038 39.3892 97.5689 38.9872 97.299 38.7031C97.032 38.4162 96.6612 38.2727 96.1868 38.2727C95.8572 38.2727 95.5618 38.3423 95.3004 38.4815C95.0419 38.6207 94.8374 38.8239 94.6868 39.0909C94.5391 39.358 94.4652 39.6818 94.4652 40.0625ZM103.021 44.1364C102.475 44.1364 101.994 43.9986 101.576 43.723C101.159 43.4446 100.832 43.0526 100.596 42.5469C100.36 42.0384 100.243 41.4375 100.243 40.7443C100.243 40.0568 100.36 39.4602 100.596 38.9545C100.832 38.4489 101.16 38.0582 101.581 37.7827C102.001 37.5071 102.487 37.3693 103.038 37.3693C103.464 37.3693 103.801 37.4403 104.048 37.5824C104.298 37.7216 104.488 37.8807 104.619 38.0597C104.752 38.2358 104.856 38.3807 104.93 38.4943H105.015V35.2727H106.021V44H105.049V42.9943H104.93C104.856 43.1136 104.751 43.2642 104.615 43.446C104.478 43.625 104.284 43.7855 104.031 43.9276C103.778 44.0668 103.441 44.1364 103.021 44.1364ZM103.157 43.233C103.561 43.233 103.902 43.1278 104.18 42.9176C104.458 42.7045 104.67 42.4105 104.815 42.0355C104.96 41.6577 105.032 41.2216 105.032 40.7273C105.032 40.2386 104.961 39.8111 104.819 39.4446C104.677 39.0753 104.467 38.7884 104.189 38.5838C103.91 38.3764 103.566 38.2727 103.157 38.2727C102.731 38.2727 102.376 38.3821 102.092 38.6009C101.811 38.8168 101.599 39.1108 101.457 39.483C101.318 39.8523 101.248 40.267 101.248 40.7273C101.248 41.1932 101.319 41.6165 101.461 41.9972C101.606 42.375 101.819 42.6761 102.1 42.9006C102.385 43.1222 102.737 43.233 103.157 43.233Z" fill="black" fill-opacity="0.8"/>
<rect x="182" y="12" width="32" height="32" rx="4" fill="white"/>
<path d="M198 28H192M198 22V28V22ZM198 28V34V28ZM198 28H204H198Z" stroke="black" stroke-width="2" stroke-linecap="round" stroke-linejoin="round"/>
<rect x="222" y="12" width="32" height="32" rx="4" fill="white"/>
<path d="M230 32V33C230 33.7956 230.316 34.5587 230.879 35.1213C231.441 35.6839 232.204 36 233 36H243C243.796 36 244.559 35.6839 245.121 35.1213C245.684 34.5587 246 33.7956 246 33V32M242 28L238 32M238 32L234 28M238 32V20" stroke="black" stroke-width="2" stroke-linecap="round" stroke-linejoin="round"/>
<defs>
<linearGradient id="paint0_linear_6_10" x1="131" y1="0" x2="131" y2="56" gradientUnits="userSpaceOnUse">
<stop stop-color="white" stop-opacity="0"/>
<stop offset="1" stop-color="white"/>
</linearGradient>
</defs>
</svg>
